<svg id="Capa_1" enable-background="new 0 0 511.999 511.999" height="512" viewBox="0 0 511.999 511.999" width="512" xmlns="http://www.w3.org/2000/svg"><g><g><g><path d="m234.152 219.997v71.308c0 .387-.04.763-.1 1.133h119.88v-73.574h-119.88c.061.37.1.747.1 1.133z" fill="#dfebfa"/><g><path d="m234.152 291.305c0 .387-.04.763-.1 1.133h119.88v-34.852h-119.78z" fill="#b1dbfc"/></g><path d="m382.391 196.572h-26.084c-2.968 0-5.374 2.406-5.374 5.374v107.411c0 2.968 2.406 5.374 5.374 5.374h26.084z" fill="#b1dbfc"/><path d="m350.933 263.25v46.107c0 2.968 2.406 5.374 5.374 5.374h26.084v-46.107h-26.084c-2.968 0-5.374-2.406-5.374-5.374z" fill="#8bcaff"/><path d="m414.419 317.958v-124.614c0-3.443-2.791-6.235-6.235-6.235h-22.559c-3.443 0-6.235 2.791-6.235 6.235v124.614c0 3.443 2.791 6.235 6.235 6.235h22.559c3.444 0 6.235-2.791 6.235-6.235z" fill="#dfebfa"/><path d="m408.185 278.086h-22.559c-3.443 0-6.235-2.792-6.235-6.235v46.107c0 3.443 2.792 6.235 6.235 6.235h22.559c3.444 0 6.235-2.791 6.235-6.235v-46.107c-.001 3.444-2.792 6.235-6.235 6.235z" fill="#b1dbfc"/></g><path d="m130.266 191.201h71.308c.387 0 .763.04 1.133.1v-123.662h-73.574v123.662c.37-.06.746-.1 1.133-.1z" fill="#dfebfa"/><g><path d="m163.985 67.639h-34.852v123.662c.37-.06.746-.1 1.133-.1h33.719z" fill="#b1dbfc"/></g><path d="m201.574 323.884h-71.308c-.387 0-.763-.04-1.133-.1v119.88h73.574v-119.88c-.37.06-.746.1-1.133.1z" fill="#dfebfa"/><g><path d="m130.266 323.884c-.387 0-.763-.04-1.133-.1v119.88h34.852v-119.78z" fill="#b1dbfc"/></g><path d="m224.999 472.122v-26.084c0-2.968-2.406-5.374-5.374-5.374h-107.41c-2.968 0-5.374 2.406-5.374 5.374v26.084z" fill="#b1dbfc"/><path d="m158.321 440.664h-46.107c-2.968 0-5.374 2.406-5.374 5.374v26.084h46.107v-26.084c0-2.968 2.406-5.374 5.374-5.374z" fill="#8bcaff"/><path d="m224.999 39.181v26.084c0 2.968-2.406 5.374-5.374 5.374h-107.41c-2.968 0-5.374-2.406-5.374-5.374v-26.084z" fill="#b1dbfc"/><path d="m228.257 214.884h-12.674c-3.868 0-7.004-3.136-7.004-7.004v-12.674c0-3.868-3.136-7.004-7.004-7.004h-71.308c-3.868 0-7.004 3.136-7.004 7.004v124.674c0 3.868 3.136 7.004 7.004 7.004h71.308c3.868 0 7.004-3.136 7.004-7.004v-12.674c0-3.868 3.136-7.004 7.004-7.004h12.674c3.868 0 7.004-3.136 7.004-7.004v-71.308c0-3.87-3.136-7.006-7.004-7.006z" fill="#b1dbfc"/><path d="m158.114 319.879c0-13.746 0-109.138 0-124.674 0-3.868 3.136-7.004 7.004-7.004h-34.852c-3.868 0-7.004 3.136-7.004 7.004v124.674c0 3.868 3.136 7.004 7.004 7.004h34.852c-3.868.001-7.004-3.136-7.004-7.004z" fill="#8bcaff"/><path d="m228.257 214.884h-12.674c-1.624 0-3.115-.558-4.303-1.485l-12.415 13.547c-15.866 17.313-15.866 43.881 0 61.194l12.415 13.547c1.188-.928 2.679-1.485 4.303-1.485h12.674c3.868 0 7.004-3.136 7.004-7.004v-71.308c0-3.87-3.136-7.006-7.004-7.006z" fill="#8bcaff"/><path d="m103.613 504.151h124.614c3.443 0 6.235-2.791 6.235-6.235v-22.559c0-3.443-2.791-6.235-6.235-6.235h-124.614c-3.443 0-6.235 2.791-6.235 6.235v22.559c0 3.444 2.792 6.235 6.235 6.235z" fill="#dfebfa"/><path d="m143.485 497.916v-22.559c0-3.443 2.792-6.235 6.235-6.235h-46.107c-3.443 0-6.235 2.792-6.235 6.235v22.559c0 3.444 2.791 6.235 6.235 6.235h46.107c-3.443 0-6.235-2.791-6.235-6.235z" fill="#b1dbfc"/><path d="m152.947 65.265v-26.084h-46.107v26.084c0 2.968 2.406 5.374 5.374 5.374h46.107c-2.968 0-5.374-2.407-5.374-5.374z" fill="#8bcaff"/><path d="m103.613 7.152h124.614c3.443 0 6.235 2.791 6.235 6.235v22.559c0 3.443-2.791 6.235-6.235 6.235h-124.614c-3.443 0-6.235-2.791-6.235-6.235v-22.559c0-3.444 2.792-6.235 6.235-6.235z" fill="#dfebfa"/><path d="m143.485 35.946v-22.559c0-3.444 2.792-6.235 6.235-6.235h-46.107c-3.443 0-6.235 2.791-6.235 6.235v22.559c0 3.443 2.791 6.235 6.235 6.235h46.107c-3.443 0-6.235-2.792-6.235-6.235z" fill="#b1dbfc"/></g><path d="m112.315 433.512c-7.099 0-12.874 5.775-12.874 12.874v16.273c-5.486 1.802-9.462 6.965-9.462 13.046v22.559c0 7.573 6.161 13.735 13.734 13.735h124.614c7.573 0 13.734-6.162 13.734-13.735v-22.559c0-6.081-3.976-11.244-9.462-13.046v-16.273c0-7.099-5.775-12.874-12.874-12.874h-9.419v-101.657c3.555-2.646 5.872-6.866 5.872-11.628v-12.179h12.179c5.563 0 10.399-3.153 12.831-7.763h34.162c4.143 0 7.5-3.358 7.5-7.5s-3.357-7.5-7.5-7.5h-32.489v-58.574h100.672v58.574h-33.183c-4.143 0-7.5 3.358-7.5 7.5s3.357 7.5 7.5 7.5h33.183v9.419c0 7.099 5.775 12.874 12.874 12.874h16.273c1.801 5.486 6.964 9.462 13.045 9.462h22.56c7.573 0 13.734-6.162 13.734-13.735v-47.095c0-4.142-3.357-7.5-7.5-7.5s-7.5 3.358-7.5 7.5v45.831h-20.028c0-25.35 0-96.787 0-122.084h20.028v41.253c0 4.142 3.357 7.5 7.5 7.5s7.5-3.358 7.5-7.5v-42.518c0-7.573-6.161-13.735-13.734-13.735h-22.56c-6.081 0-11.244 3.976-13.045 9.462h-16.273c-7.099 0-12.874 5.775-12.874 12.874v9.418h-105.224c-2.601-2.46-6.098-3.98-9.951-3.98h-12.179v-12.179c0-4.762-2.317-8.982-5.872-11.628v-105.437h9.419c7.099 0 12.874-5.775 12.874-12.874v-16.273c5.486-1.802 9.462-6.965 9.462-13.046v-22.559c0-7.573-6.161-13.735-13.734-13.735h-124.615c-7.573 0-13.734 6.162-13.734 13.735v22.559c0 6.081 3.976 11.244 9.462 13.046v16.273c0 7.099 5.775 12.874 12.874 12.874h9.419v105.438c-3.555 2.646-5.872 6.866-5.872 11.628v124.674c0 4.762 2.317 8.982 5.872 11.628v101.657zm246.219-229.092h13.458v103.159h-13.458c0-11.842 0-92.576 0-103.159zm-131.472 272.55v20.029h-122.083v-20.029zm-13.586-254.409c.536.084 1.49.171 2.207.171h12.179v70.054.263h-12.179c-.708 0-1.642.083-2.207.171l-8.981-9.8c-13.338-14.555-13.338-36.505 0-51.06zm-82.614 97.17v-123.682h70.317v12.178c0 1.641.287 3.214.792 4.686-9.197 10.035-22.405 21.798-22.405 44.977 0 23.064 13.036 34.754 22.405 44.977-.504 1.472-.792 3.045-.792 4.686v12.178zm64.445 15.001v98.78h-58.573v-98.78zm-58.573-153.683v-102.562h58.573v102.562zm-31.755-146.02v-20.029h122.083v20.029c-25.598 0-96.786 0-122.083 0zm9.462 28.458v-13.458h103.159v13.458c-10.582 0-91.317 0-103.159 0zm103.159 385.025v13.458h-103.159v-13.458z"/></g></svg>