<svg id="Capa_1" enable-background="new 0 0 511.999 511.999" height="512" viewBox="0 0 511.999 511.999" width="512" xmlns="http://www.w3.org/2000/svg"><g><g><path d="m230.85 365.58h50.097v78.25h-50.097z" fill="#b1dbfc"/><path d="m230.85 365.58h25.049v78.25h-25.049z" fill="#8bcaff"/><path d="m283.023 441.206h-54.249c-4.57 0-8.274 3.704-8.274 8.274v19.272c0 19.55 15.849 35.399 35.399 35.399s35.399-15.848 35.399-35.398v-19.273c0-4.57-3.705-8.274-8.275-8.274z" fill="#dfebfa"/><path d="m245.549 468.752v-19.272c0-4.57 3.705-8.274 8.274-8.274h-25.049c-4.57 0-8.274 3.704-8.274 8.274v19.272c0 19.55 15.848 35.399 35.399 35.399 4.411 0 8.63-.813 12.524-2.287-13.367-5.059-22.874-17.972-22.874-33.112z" fill="#b1dbfc"/><path d="m308.211 337.37v26.084c0 2.968-2.406 5.374-5.374 5.374h-93.876c-2.968 0-5.374-2.406-5.374-5.374v-26.084z" fill="#dfebfa"/><path d="m228.635 363.454v-26.084h-25.049v26.084c0 2.968 2.406 5.374 5.374 5.374h25.049c-2.968 0-5.374-2.406-5.374-5.374z" fill="#b1dbfc"/><g><path d="m65.502 208.179v59.4c0 40.035 32.756 72.791 72.791 72.791h235.211c40.035 0 72.792-32.756 72.792-72.791v-59.4z" fill="#b1dbfc"/></g><path d="m151.502 267.579v-59.4h-86v59.4c0 40.035 32.756 72.791 72.792 72.791h86c-40.036 0-72.792-32.756-72.792-72.791z" fill="#8bcaff"/><path d="m287.799 41.08h34.142v33h-34.142z" fill="#8bcaff"/><path d="m285.914 7.152h37.5v35.284h-37.5z" fill="#ff4756"/><path d="m341.348 7.152h-19.406v35.284h19.406c6.872 0 12.494-5.622 12.494-12.494v-10.296c-.001-6.872-5.623-12.494-12.494-12.494z" fill="#ff656f"/><path d="m268.393 7.152c-6.872 0-12.494 5.622-12.494 12.494v10.297c0 6.872 5.622 12.494 12.494 12.494h19.406v-35.285z" fill="#fc2b3a"/><path d="m378.651 127.872-10.603-27.538c-6.548-17.011-23.195-28.44-41.423-28.44h-41.957c-24.475 0-44.387 19.912-44.387 44.388v34.898h31.234v-34.898c0-7.252 5.9-13.154 13.153-13.154h41.957c5.401 0 10.334 3.387 12.275 8.428l10.603 27.539c3.099 8.05 12.137 12.063 20.185 8.963 8.049-3.099 12.062-12.137 8.963-20.186z" fill="#dfebfa"/><g><path d="m317.502 71.893h-32.833c-24.475 0-44.387 19.912-44.387 44.388v34.898h31.234v-34.898c0-2.69.815-5.192 2.206-7.278 3.483-21.024 21.784-37.11 43.78-37.11z" fill="#b1dbfc"/></g><path d="m286.848 147.179h-61.899-.044c-1.8 0-3.26 1.46-3.26 3.26v28.711h68.506v-28.668c.001-1.816-1.486-3.303-3.303-3.303z" fill="#ffd301"/><path d="m256.805 147.179h-31.856-.044c-1.8 0-3.26 1.46-3.26 3.26v28.711h31.9v-28.711c.001-1.8 1.46-3.26 3.26-3.26z" fill="#ffc20c"/><path d="m58.412 176.15h394.973c3.443 0 6.235 2.791 6.235 6.235v22.559c0 3.443-2.791 6.235-6.235 6.235h-394.973c-3.443 0-6.235-2.791-6.235-6.235v-22.559c.001-3.444 2.792-6.235 6.235-6.235z" fill="#dfebfa"/><path d="m138.178 204.944v-22.559c0-3.444 2.792-6.235 6.235-6.235h-86c-3.443 0-6.235 2.791-6.235 6.235v22.559c0 3.443 2.792 6.235 6.235 6.235h86c-3.444 0-6.235-2.792-6.235-6.235z" fill="#b1dbfc"/></g><path d="m44.778 182.733v22.56c0 7.435 5.942 13.494 13.324 13.714v48.921c0 44.273 36.019 80.292 80.291 80.292h57.794v15.584c0 7.099 5.775 12.874 12.874 12.874h14.39v58.358c-6.03 2.219-10.351 8.003-10.351 14.793v19.271c0 23.655 19.244 42.899 42.898 42.899 23.655 0 42.899-19.244 42.899-42.898v-19.272c0-6.79-4.321-12.575-10.351-14.794v-12.17c0-4.142-3.357-7.5-7.5-7.5s-7.5 3.358-7.5 7.5v11.189h-35.097v-57.377h35.097v11.188c0 4.142 3.357 7.5 7.5 7.5s7.5-3.358 7.5-7.5v-11.188h14.39c7.099 0 12.874-5.775 12.874-12.874v-15.584h57.793c44.273 0 80.292-36.019 80.292-80.292v-48.921c7.383-.22 13.324-6.279 13.324-13.714v-22.56c0-7.573-6.161-13.734-13.734-13.734h-155.732v-18.168c0-5.957-4.847-10.803-10.804-10.803h-7.832v-23.398c0-3.118 2.535-5.654 5.652-5.654h41.957c2.285 0 4.454 1.489 5.275 3.623l10.603 27.54c4.591 11.923 17.955 17.859 29.879 13.267 11.924-4.59 17.859-17.954 13.268-29.879l-10.603-27.538c-7.316-19.005-25.416-32.042-45.606-33.159v-14.544h11.906c11.024 0 19.994-8.969 19.994-19.994v-10.297c0-11.025-8.969-19.994-19.994-19.994-8.236 0-64.679 0-72.955 0-11.024 0-19.994 8.969-19.994 19.994v10.297c0 11.024 8.97 19.994 19.994 19.994h11.906v14.654c-26.571 2.228-47.517 24.552-47.517 51.691v23.398h-7.877c-5.933 0-10.76 4.827-10.76 10.76v18.211h-56.853c-4.143 0-7.5 3.358-7.5 7.5s3.357 7.5 7.5 7.5h294.827v20.028c-10.039 0-383.084 0-392.442 0v-20.028h62.615c4.143 0 7.5-3.358 7.5-7.5s-3.357-7.5-7.5-7.5h-63.879c-7.574 0-13.735 6.161-13.735 13.734zm284.764-167.733h11.906c2.707 0 4.994 2.287 4.994 4.994v10.297c0 2.707-2.287 4.994-4.994 4.994h-11.906zm-34.143 0h19.143v20.285h-19.143zm0 35.285h19.143v14.457h-19.143zm-26.906-15c-2.707 0-4.994-2.287-4.994-4.994v-10.297c0-2.707 2.287-4.994 4.994-4.994h11.906v20.285zm-20.61 81.344c0-20.34 16.547-36.888 36.887-36.888h41.957c15.148 0 28.982 9.498 34.424 23.635l10.603 27.539c1.607 4.177-.46 8.876-4.66 10.492-4.175 1.609-8.874-.463-10.49-4.659l-10.604-27.539c-3.047-7.915-10.792-13.233-19.273-13.233h-41.957c-11.388 0-20.652 9.265-20.652 20.654v23.398h-16.234v-23.399zm34.87 52.37h-53.507v-13.971h53.507zm.371 280.055c.427 0 .774.348.774.775v19.272c0 15.383-12.516 27.898-27.899 27.898s-27.898-12.516-27.898-27.899v-19.272c0-.427.348-.774.774-.774zm17.688-87.378c-11.033 0-79.216 0-89.624 0v-13.458h89.624zm-227.709-142.649h365.794v48.9c0 36.002-29.29 65.292-65.292 65.292-9.301 0-225.911 0-235.211 0-36.002 0-65.291-29.29-65.291-65.292z"/></g></svg>